<?xml version="1.0" encoding="UTF-8" standalone="no"?>
<svg
   xmlns:dc="http://purl.org/dc/elements/1.1/"
   xmlns:cc="http://creativecommons.org/ns#"
   xmlns:rdf="http://www.w3.org/1999/02/22-rdf-syntax-ns#"
   xmlns:svg="http://www.w3.org/2000/svg"
   xmlns="http://www.w3.org/2000/svg"
   xmlns:sodipodi="http://sodipodi.sourceforge.net/DTD/sodipodi-0.dtd"
   xmlns:inkscape="http://www.inkscape.org/namespaces/inkscape"
   viewBox="0 0 48 48"
   version="1.1"
   id="svg2"
   inkscape:version="0.91 r13725"
   sodipodi:docname="book.svg"
   inkscape:export-filename="C:\Users\ogasimli\Desktop\book.png"
   inkscape:export-xdpi="160"
   inkscape:export-ydpi="160">
  <metadata
     id="metadata15">
    <rdf:RDF>
      <cc:Work
         rdf:about="">
        <dc:format>image/svg+xml</dc:format>
        <dc:type
           rdf:resource="http://purl.org/dc/dcmitype/StillImage" />
        <dc:title></dc:title>
      </cc:Work>
    </rdf:RDF>
  </metadata>
  <defs
     id="defs13" />
  <sodipodi:namedview
     pagecolor="#ffffff"
     bordercolor="#666666"
     borderopacity="0"
     objecttolerance="10"
     gridtolerance="10"
     guidetolerance="10"
     inkscape:pageopacity="0"
     inkscape:pageshadow="2"
     inkscape:window-width="1536"
     inkscape:window-height="801"
     id="namedview11"
     showgrid="false"
     inkscape:zoom="4.9166667"
     inkscape:cx="-22.881356"
     inkscape:cy="24"
     inkscape:window-x="-8"
     inkscape:window-y="-8"
     inkscape:window-maximized="1"
     inkscape:current-layer="svg2" />
  <path
     inkscape:connector-curvature="0"
     id="path5"
     d="M 38,44 12,44 12,4 38,4 c 2.199219,0 4,1.800781 4,4 l 0,32 c 0,2.199219 -1.800781,4 -4,4"
     style="fill:#8c43ff;fill-opacity:1" />
  <path
     inkscape:connector-curvature="0"
     id="path7"
     d="m 10,4 2,0 0,40 -2,0 C 7.800781,44 6,42.199219 6,40 L 6,8 C 6,5.800781 7.800781,4 10,4"
     style="fill:#5306cf;fill-opacity:0.94117647" />
  <path
     inkscape:connector-curvature="0"
     id="path9"
     d="m 37,15 -20,0 0,-4 20,0 z m 0,2 -20,0 0,2 20,0 z"
     style="fill:#5306cb;fill-opacity:1" />
</svg>
